PathFileType	4	(X/Y/Z)	D:\MotionData\NordSprintingStudy\Kristen_Nord_test_zero_plates\Trimmed_NordZeroed000004.trc
DataRate	CameraRate	NumFrames	NumMarkers	Units	OrigDataRate	OrigDataStartFrame	OrigNumFrames
200.00	200.00	      6	52	mm	200.00	240	      1912
Frame#	Time	C7			R_Shoulder			L_Shoulder			Sternum			R_humerus			R_elbow_med			R_elbow_lat			R_forearm			R_wrist_radius			R_wrist_ulna			L_humerus			L_elbow_med			L_elbow_lat			L_forearm			L_wrist_radius			L_wrist_ulna			r.ASIS			r.PSIS			r_IC			L.ASIS			L.PSIS			l_IC			r_thigh1			r_thigh2			r_thigh3			r_thigh4			r_thigh5			r_knee			r_mknee			r_shank_antsup			r_sh2			r_sh3			r_sh4			r_ankle			r_mankle			r_calc			r_5meta			r_toe			L_thigh1			L_thigh2			L_thigh3			L_thigh4			L_knee			L_mknee			L_shank_antsup			L_sh2			L_sh3			L_ankle			L_mankle			L_calc			L_5meta			L_toe			
		X1	Y1	Z1	X2	Y2	Z2	X3	Y3	Z3	X4	Y4	Z4	X5	Y5	Z5	X6	Y6	Z6	X7	Y7	Z7	X8	Y8	Z8	X9	Y9	Z9	X10	Y10	Z10	X11	Y11	Z11	X12	Y12	Z12	X13	Y13	Z13	X14	Y14	Z14	X15	Y15	Z15	X16	Y16	Z16	X17	Y17	Z17	X18	Y18	Z18	X19	Y19	Z19	X20	Y20	Z20	X21	Y21	Z21	X22	Y22	Z22	X23	Y23	Z23	X24	Y24	Z24	X25	Y25	Z25	X26	Y26	Z26	X27	Y27	Z27	X28	Y28	Z28	X29	Y29	Z29	X30	Y30	Z30	X31	Y31	Z31	X32	Y32	Z32	X33	Y33	Z33	X34	Y34	Z34	X35	Y35	Z35	X36	Y36	Z36	X37	Y37	Z37	X38	Y38	Z38	X39	Y39	Z39	X40	Y40	Z40	X41	Y41	Z41	X42	Y42	Z42	X43	Y43	Z43	X44	Y44	Z44	X45	Y45	Z45	X46	Y46	Z46	X47	Y47	Z47	X48	Y48	Z48	X49	Y49	Z49	X50	Y50	Z50	X51	Y51	Z51	X52	Y52	Z52	

240	1.195	1238.45850	471.82916	1267.11487	1355.38281	522.55554	1269.43860	1103.08044	499.96063	1275.44226	1222.26038	591.72620	1203.60132	1519.73840	462.94641	1237.33313	1651.38599	504.33948	1170.89014	1637.20911	432.77521	1214.75476	1632.59253	506.12537	1316.15674	1581.57654	614.33630	1370.48621	1641.06494	586.66583	1397.69482	948.61127	415.36191	1235.72021	791.30865	459.87421	1190.99670	816.58374	394.20114	1246.64917	842.99084	453.88300	1327.31921	860.89496	550.96289	1405.44434	930.39301	542.24493	1379.90015	1346.76563	490.23920	734.98828	1315.24561	349.73450	869.12097	1394.05457	445.38300	840.93121	1119.46167	463.64148	729.94531	1201.24426	336.31049	871.24066	1089.46594	440.77524	835.42676	1365.92749	440.92520	502.02249	1357.74512	412.69925	387.03534	1397.25903	375.47498	367.96896	1424.87317	351.95651	522.08075	1413.97266	324.10385	408.88693	1396.84961	306.89209	306.96329	1272.15466	294.72580	309.33493	1418.54663	200.71873	308.75821	1423.73364	78.68293	316.38907	1420.70813	202.55464	386.20413	1408.39758	86.20179	396.14249	1418.83618	-82.50674	359.49576	1342.66028	-81.17073	334.26730	1350.75928	-87.19029	428.22537	1420.83887	-202.24341	293.72638	1384.28467	-186.15918	243.75665	1042.59277	378.27921	546.69843	1031.07751	341.49353	411.59738	1052.72461	264.49203	580.99646	1061.87561	233.51237	445.28378	1032.87708	259.21390	337.12125	1161.03491	262.37653	309.90277	1025.74487	162.25806	320.58444	1041.80371	168.92998	408.76801	1049.22034	48.16974	407.76489	1083.95044	-114.88688	374.27567	1157.93860	-105.60366	344.72394	1128.80566	-120.54006	431.69302	1106.69568	-245.10252	290.65674	1139.15088	-216.99548	248.73479	
241	1.200	1238.58459	471.71634	1267.12915	1355.35327	522.83057	1269.35168	1103.12329	500.18890	1275.34595	1222.27002	591.96210	1203.49658	1519.69727	463.26044	1237.29431	1651.40002	504.64795	1170.81506	1637.21777	433.07590	1214.72778	1632.62085	506.25342	1316.08740	1581.53979	614.94519	1370.60938	1641.08301	587.01636	1397.60767	948.64844	415.55075	1235.64709	791.35242	460.00272	1190.90564	816.70862	394.22916	1246.67566	843.03882	454.04413	1327.18250	860.85638	551.17090	1405.33020	930.35278	542.44781	1379.78235	1346.80811	490.34103	734.91107	1315.26880	349.85345	869.09851	1394.05896	445.53308	840.83789	1119.23242	464.11551	730.29089	1201.28198	336.45483	871.19708	1089.49316	440.88599	835.34351	1365.95728	440.92798	501.96698	1358.21814	412.45947	387.41129	1397.29907	375.47443	367.93658	1424.88342	351.93832	522.06927	1413.96948	324.12592	408.85001	1396.84375	306.90479	306.91910	1272.14478	294.70749	309.36237	1417.77307	201.22791	308.22559	1423.69397	78.70532	316.35297	1420.72083	202.56795	386.19315	1408.39941	86.19444	396.20245	1418.88867	-82.52048	359.41693	1342.70447	-81.19907	334.20090	1350.83057	-87.10750	428.21506	1420.84509	-202.28090	293.68555	1384.19788	-186.25763	243.45793	1042.56934	378.28009	546.65259	1031.11719	341.37067	411.53210	1052.72119	264.52029	581.04492	1061.93738	233.43683	445.36041	1032.87305	259.20792	337.08481	1161.02478	262.36768	309.89999	1025.74878	162.18343	320.59552	1041.77014	168.91370	408.73621	1049.19287	48.15123	407.72784	1083.94934	-114.96540	374.31766	1157.96228	-105.60061	344.69223	1128.81140	-120.54136	431.65967	1106.76404	-245.11066	290.59955	1139.76965	-216.75195	249.17773	
242	1.205	1238.47034	472.37164	1266.88330	1355.32996	523.13751	1269.24207	1103.13025	500.42883	1275.26758	1222.28430	592.17975	1203.39539	1519.70361	463.53983	1237.21875	1651.42542	504.88782	1170.72327	1637.24780	433.35870	1214.67493	1632.66284	506.58600	1316.04382	1581.49365	615.30524	1370.51050	1641.10583	587.39789	1397.44897	948.71667	415.71753	1235.50879	791.30920	460.14865	1190.81604	816.73004	394.24255	1246.75903	843.06830	454.18857	1327.06067	860.80377	551.37677	1405.23047	930.35352	542.68378	1379.64087	1346.80798	490.44580	734.82709	1315.34973	349.98074	869.01538	1394.10754	445.65390	840.78223	1119.44934	463.82211	729.79590	1201.32629	336.56329	871.14301	1089.52356	441.00400	835.31628	1365.98633	440.97610	501.92157	1357.91479	412.95200	386.91086	1397.31934	375.46484	367.88132	1424.88342	351.99664	522.05255	1413.99011	324.16931	408.79465	1396.88696	306.93304	306.85046	1272.15051	294.71600	309.37363	1418.55640	200.73584	308.65891	1423.70764	78.74100	316.31717	1420.75537	202.59706	386.17938	1408.36145	86.18759	396.05939	1418.87976	-82.46047	359.46011	1342.65747	-81.16152	334.26666	1350.95947	-87.07384	428.16898	1420.91101	-202.35846	293.66797	1383.36731	-186.66972	242.60097	1042.60852	378.29498	546.63757	1031.09058	341.39407	411.56625	1052.74670	264.54300	581.04395	1061.89624	233.43369	445.36084	1032.84863	259.17636	337.11020	1161.04053	262.38712	309.89709	1025.76294	162.15257	320.60175	1041.77783	168.89368	408.71640	1049.21082	48.12949	407.67026	1083.96509	-114.91966	374.26874	1158.00708	-105.60608	344.65314	1128.86047	-120.55621	431.66248	1106.79993	-245.14008	290.68381	1139.83472	-216.75572	249.13593	
243	1.210	1238.49939	472.61688	1266.75525	1355.34509	523.40521	1269.11243	1103.15442	500.65787	1275.15979	1222.32776	592.39661	1203.31189	1519.74402	463.82190	1237.10413	1651.43787	505.13623	1170.60779	1637.25720	433.61462	1214.58179	1632.71838	506.92505	1315.91052	1581.58484	615.41199	1370.31604	1641.09900	587.74213	1397.33093	948.77106	415.89325	1235.38037	791.29810	460.29068	1190.74194	816.78027	394.38882	1246.66895	843.18945	454.34869	1326.85168	860.78265	551.60126	1405.15063	930.33527	542.88995	1379.52747	1346.88550	490.53195	734.71442	1315.40552	350.10101	868.91724	1394.13269	445.78506	840.68237	1119.28833	464.25815	730.17303	1201.42004	336.68536	871.04803	1089.21826	441.23157	834.90912	1366.07666	441.04321	501.88452	1358.23450	412.56055	387.18286	1397.34863	375.48572	367.83911	1424.90967	352.03815	522.05682	1414.03650	324.16315	408.75092	1396.94446	306.94720	306.71835	1272.15271	294.72607	309.38553	1418.56531	200.77032	308.60330	1423.72070	78.76100	316.23508	1420.77869	202.65070	386.11292	1408.47314	86.26381	396.12729	1418.96814	-82.45560	359.25665	1342.62292	-81.14410	334.30161	1350.99719	-87.08048	428.11026	1420.96326	-202.36008	293.52747	1383.41211	-186.67061	242.42447	1042.59351	378.33694	546.64117	1031.10632	341.41150	411.55618	1052.81641	264.59402	581.04816	1061.99280	233.49077	445.36548	1032.89392	259.18039	337.10953	1161.02051	262.35226	309.91898	1025.78699	162.15819	320.59061	1041.77136	168.88557	408.69354	1049.21997	48.12019	407.59256	1084.01050	-114.96366	374.32623	1158.05872	-105.60521	344.61148	1128.92639	-120.56442	431.66351	1106.85107	-245.13416	290.63275	1139.88965	-216.80180	249.26877	
244	1.215	1238.67395	472.51608	1266.75488	1355.25757	523.75494	1268.92798	1103.19763	501.00089	1274.77563	1222.36218	592.61365	1203.17151	1519.78662	464.10626	1236.95996	1651.54114	505.37289	1170.37341	1637.29907	433.91345	1214.43591	1632.75562	507.23300	1315.79419	1581.47485	616.04303	1370.34985	1641.16748	588.09320	1397.08618	948.82178	416.13055	1235.25916	791.34534	460.47467	1190.64941	816.86157	394.53140	1246.56152	843.35248	454.14496	1327.07300	860.75378	551.75647	1405.07800	930.34290	543.08234	1379.38965	1346.93958	490.62100	734.59723	1315.49939	350.26501	868.83356	1394.15308	445.91406	840.59027	1119.29724	464.35010	730.12189	1201.52075	336.81635	870.98468	1089.25024	441.34302	834.87903	1366.18030	441.07797	501.72208	1358.24268	412.78113	386.97751	1397.40259	375.49734	367.73117	1424.92725	352.09274	522.04962	1414.07312	324.18555	408.69064	1397.04480	306.94012	306.52490	1272.16687	294.74463	309.38559	1418.56335	200.78951	308.51752	1423.76685	78.80811	316.19312	1420.83032	202.67545	386.06067	1408.45642	86.28352	396.04517	1419.03162	-82.40697	359.14191	1342.62854	-81.11983	334.41595	1351.17017	-87.00790	428.05707	1420.95850	-202.26869	293.41928	1383.35999	-186.46188	242.20360	1042.61438	378.35635	546.60809	1031.06580	341.42859	411.57986	1052.82471	264.64923	581.04742	1061.93970	233.49159	445.37308	1032.84802	259.15576	337.18430	1161.04126	262.37527	309.92969	1025.79065	162.13351	320.59332	1041.84155	168.83066	408.69272	1049.28308	48.06250	407.55704	1084.02197	-114.94605	374.32993	1158.09839	-105.58972	344.53622	1128.99792	-120.56864	431.66095	1106.86414	-245.16351	290.73578	1139.92456	-216.79131	249.29959	
245	1.220	1238.52539	473.23114	1266.43079	1355.27539	523.99817	1268.76404	1103.32178	501.27368	1274.55505	1222.41589	592.84808	1203.04919	1519.82324	464.40750	1236.81531	1651.60596	505.57767	1170.17480	1637.31079	434.20187	1214.30176	1632.89038	507.51233	1315.73303	1581.46765	616.39679	1370.26831	1641.18298	588.42371	1396.88696	948.91815	416.34436	1235.08557	791.38525	460.63678	1190.55322	816.92224	394.66113	1246.45044	843.68323	454.39246	1326.64136	860.75812	551.91455	1405.00098	930.33649	543.23834	1379.26379	1346.99866	490.71301	734.47357	1315.57336	350.42416	868.68353	1394.25281	446.09134	840.43213	1119.54187	464.07547	729.59125	1201.66174	336.93222	870.82678	1089.63110	441.39725	835.15698	1366.20850	441.15067	501.61453	1358.44556	412.61075	386.98785	1397.45996	375.51981	367.64896	1424.94250	352.11084	522.04272	1414.11450	324.20825	408.61377	1397.16150	306.98370	306.36194	1272.14807	294.77206	309.39624	1417.92859	201.29799	307.91827	1423.80249	78.82203	316.12817	1420.87073	202.71507	386.02237	1408.62976	86.29699	396.12308	1419.13098	-82.39638	358.95023	1342.61768	-81.09803	334.42746	1351.25244	-86.98938	428.00970	1421.04980	-202.36688	293.29764	1383.59912	-186.69966	241.97357	1042.60266	378.39285	546.61255	1031.10767	341.38501	411.55612	1052.84595	264.64206	581.10211	1062.01379	233.45174	445.43884	1032.87927	259.15207	337.15204	1161.04077	262.40134	309.93713	1025.77563	162.12334	320.59967	1041.88184	168.84073	408.66092	1049.32715	48.07043	407.49591	1084.05188	-114.96885	374.37723	1158.16467	-105.59740	344.48822	1129.05432	-120.54813	431.61606	1106.92468	-245.15112	290.73477	1139.92090	-216.79289	249.37520	
